<?xml version="1.0" standalone="no"?>
<!DOCTYPE svg PUBLIC "-//W3C//DTD SVG 20010904//EN"
 "http://www.w3.org/TR/2001/REC-SVG-20010904/DTD/svg10.dtd">
<svg version="1.0" xmlns="http://www.w3.org/2000/svg"
 width="512.000000pt" height="512.000000pt" viewBox="0 0 512.000000 512.000000"
 preserveAspectRatio="xMidYMid meet">
<metadata>
Created by potrace 1.14, written by Peter Selinger 2001-2017
</metadata>
<g transform="translate(0.000000,512.000000) scale(0.100000,-0.100000)"
fill="#000000" stroke="none">
<path d="M1510 4541 c-5 -11 -10 -81 -10 -155 l0 -136 -622 -2 -623 -3 0 -730
0 -730 620 -5 620 -5 5 -775 c3 -426 9 -781 13 -787 6 -10 48 -13 153 -13
l144 0 0 -138 c0 -95 4 -143 13 -155 10 -14 35 -17 157 -19 l145 -3 5 -150 5
-150 1034 -3 c756 -1 1037 1 1047 9 12 9 14 146 14 785 l0 774 315 0 315 0 0
730 c0 402 -1 731 -2 732 -2 0 -73 4 -158 7 l-155 6 -5 465 -5 465 -1507 3
c-1482 2 -1507 2 -1518 -17z m2833 -211 c15 -18 17 -58 17 -451 0 -277 4 -437
10 -450 10 -17 22 -19 146 -19 l134 0 10 -26 c6 -15 10 -226 10 -528 0 -408
-3 -506 -13 -515 -9 -7 -112 -12 -313 -13 l-299 -3 -5 -142 c-3 -78 -10 -147
-15 -152 -7 -7 -169 -12 -465 -13 l-455 -3 -3 -65 c-5 -114 -44 -105 470 -108
l444 -3 12 -33 c17 -47 17 -1017 0 -1034 -9 -9 -211 -12 -849 -12 -754 0 -837
2 -843 16 -3 9 -6 59 -6 112 0 53 -3 121 -6 150 l-7 52 -142 0 c-121 0 -144 2
-149 16 -3 9 -6 62 -6 119 0 59 -4 107 -10 110 -5 3 -10 19 -10 35 l0 29 -142
3 -143 3 -5 745 c-4 626 -7 750 -20 778 l-14 32 -603 0 -603 0 -15 23 c-13 21
-15 90 -13 538 l3 514 630 5 c347 3 631 6 633 8 1 1 2 70 2 152 l0 150 1308 0
c1298 0 1308 0 1325 -20z"/>
<path d="M1797 4273 c-4 -3 -7 -73 -7 -155 l0 -148 -614 0 c-338 0 -621 -3
-630 -6 -14 -5 -16 -54 -16 -443 0 -327 3 -440 12 -449 9 -9 163 -12 630 -12
l618 0 0 -774 c0 -628 2 -776 13 -784 8 -7 71 -13 153 -14 l139 -3 2 -130 c4
-193 -13 -174 161 -177 l147 -3 3 -145 c2 -122 5 -147 19 -157 24 -18 1493
-19 1511 -1 9 9 12 120 12 439 0 235 -3 434 -6 443 -5 14 -57 16 -475 16
l-469 0 0 139 c0 77 -3 146 -6 155 -5 14 -28 16 -155 16 l-149 0 0 331 c0 309
1 330 18 327 15 -3 18 -20 22 -148 l5 -145 150 -5 150 -5 3 -144 c1 -86 7
-150 14 -158 8 -10 98 -13 444 -13 l434 0 10 26 c6 14 10 86 10 160 l0 134
304 0 c268 0 305 2 310 16 3 9 6 206 6 440 l0 424 -22 5 c-13 3 -84 6 -158 8
l-135 2 -5 470 -5 470 -1221 3 c-671 1 -1224 -1 -1227 -5z m2221 -229 l22 -6
-2 -212 c-3 -203 -4 -211 -23 -211 -19 0 -20 8 -23 133 -3 162 -22 181 -22 22
l0 -110 -454 0 c-250 0 -461 -3 -470 -6 -14 -5 -16 -28 -16 -155 l0 -148 -132
-3 -133 -3 3 -35 c2 -19 6 -101 8 -182 l5 -148 -25 0 -26 0 -2 148 -2 147 -6
-120 -5 -120 -137 -3 -138 -3 0 -24 c0 -13 5 -27 10 -30 6 -4 10 -199 10 -554
0 -412 3 -550 12 -559 8 -8 56 -12 148 -12 74 0 140 -4 147 -8 9 -5 13 -52 15
-152 l3 -145 460 -5 460 -5 3 -222 c2 -194 0 -223 -13 -223 -13 0 -15 22 -15
146 0 112 -3 145 -12 142 -9 -3 -14 -37 -16 -111 l-3 -107 -436 -2 c-404 -3
-436 -4 -444 -20 -5 -10 -13 -26 -18 -35 -6 -14 -20 -18 -57 -18 l-49 0 -3
161 -2 162 35 6 c19 4 35 13 35 19 0 31 -25 37 -146 37 l-123 0 -3 -27 c-3
-26 -7 -28 -55 -31 l-53 -3 0 155 0 156 25 0 c30 0 43 24 25 45 -11 13 -35 15
-129 13 l-116 -3 -3 -27 c-3 -27 -5 -28 -63 -28 l-59 0 0 683 c0 518 3 686 12
695 8 8 54 12 143 12 89 0 137 4 148 13 14 10 17 35 19 157 l3 145 150 5 150
5 5 85 c5 79 7 85 28 88 17 3 22 9 20 25 -3 22 -4 22 -276 25 -245 2 -273 1
-279 -14 -3 -9 -1 -25 5 -35 13 -20 17 -284 6 -313 -9 -24 -42 -2 -46 31 -2
16 -6 27 -10 26 -5 -2 -278 -3 -607 -3 l-600 0 -3 -27 c-2 -23 -10 -30 -40
-37 -26 -6 -46 -6 -63 2 l-25 12 0 215 0 215 611 0 c401 0 617 4 630 10 17 10
19 23 19 155 0 105 3 145 13 148 18 8 1968 8 1995 1z m-928 -598 c0 -142 -7
-173 -32 -148 -7 7 -13 69 -16 143 -4 105 -2 133 9 140 36 23 39 12 39 -135z
m933 -28 c14 -11 17 -36 19 -158 l3 -145 150 -5 150 -5 3 -214 c1 -118 -1
-218 -6 -223 -5 -5 -16 -6 -25 -2 -15 5 -17 24 -17 140 0 83 -4 134 -10 134
-6 0 -10 -40 -10 -99 0 -55 -3 -106 -6 -115 -5 -13 -26 -16 -125 -16 -105 0
-120 -2 -126 -17 -10 -27 -23 -33 -76 -33 l-48 0 3 158 c3 154 3 157 26 160
24 4 29 21 10 40 -13 13 -205 17 -224 4 -7 -4 -13 -16 -15 -27 -4 -17 -12 -20
-59 -20 l-55 0 -3 214 c-2 149 1 218 9 227 16 19 407 20 432 2z m-675 -66 c3
-17 -2 -22 -17 -22 -16 0 -21 6 -21 26 0 33 33 30 38 -4z m52 -390 c0 -102 4
-152 12 -160 8 -8 57 -12 155 -12 l143 0 -2 -217 c-2 -139 -7 -217 -13 -216
-6 2 -11 59 -13 138 -1 76 -7 135 -12 135 -5 0 -11 -51 -12 -112 l-3 -113
-132 -3 c-127 -2 -132 -3 -135 -25 -3 -20 -9 -22 -58 -22 l-55 0 0 155 0 155
28 3 c20 3 27 8 25 20 -3 15 -20 17 -126 20 -115 2 -122 1 -122 -17 0 -24 -19
-31 -81 -31 l-49 0 0 225 0 225 225 0 225 0 0 -148z"/>
<path d="M2415 2365 c0 -319 1 -451 2 -293 2 158 2 419 0 580 -1 161 -2 32 -2
-287z"/>
<path d="M2724 1595 c0 -66 1 -92 3 -57 2 34 2 88 0 120 -2 31 -3 3 -3 -63z"/>
<path d="M3977 3263 c-11 -11 -8 -203 3 -203 6 0 10 42 10 105 0 105 -1 111
-13 98z"/>
<path d="M3357 2933 c-11 -10 -8 -181 3 -188 6 -4 10 30 10 94 0 101 -1 107
-13 94z"/>
<path d="M2797 2323 c-4 -3 -7 -34 -7 -68 0 -82 14 -95 102 -95 51 0 67 4 72
16 11 29 6 91 -10 122 -15 31 -17 32 -83 32 -37 0 -71 -3 -74 -7z"/>
</g>
</svg>
